<svg xmlns="http://www.w3.org/2000/svg" xmlns:xlink="http://www.w3.org/1999/xlink" width="40" zoomAndPan="magnify" viewBox="0 0 30 30.000001" height="40" preserveAspectRatio="xMidYMid meet" version="1.0"><defs><clipPath id="0168b34ac8"><path d="M 0.484375 0 L 29.515625 0 L 29.515625 29.03125 L 0.484375 29.03125 Z M 0.484375 0 " clip-rule="nonzero"/></clipPath><clipPath id="0477ec5c7f"><path d="M 0.519531 0 L 29.515625 0 L 29.515625 29.03125 L 0.519531 29.03125 Z M 0.519531 0 " clip-rule="nonzero"/></clipPath><clipPath id="dd3c2d61d2"><path d="M 1 0 L 29.515625 0 L 29.515625 29 L 1 29 Z M 1 0 " clip-rule="nonzero"/></clipPath></defs><g clip-path="url(#0168b34ac8)"><path fill="#ffffff" d="M 0.484375 0 L 29.515625 0 L 29.515625 29.03125 L 0.484375 29.03125 Z M 0.484375 0 " fill-opacity="1" fill-rule="nonzero"/><path fill="#ffffff" d="M 0.484375 0 L 29.515625 0 L 29.515625 29.03125 L 0.484375 29.03125 Z M 0.484375 0 " fill-opacity="1" fill-rule="nonzero"/></g><g clip-path="url(#0477ec5c7f)"><path fill="#5ce1e6" d="M 28.699219 17.621094 L 20.078125 26.617188 C 18.53125 28.164062 16.425781 29.03125 14.234375 29.03125 L 12.609375 29.03125 C 8.421875 29.03125 5.03125 25.648438 5.03125 21.476562 C 5.03125 19.464844 4.5 17.492188 3.492188 15.75 L 0.914062 11.296875 C 0.519531 10.617188 0.613281 9.78125 1.097656 9.207031 C 1.90625 8.238281 3.453125 8.355469 4.097656 9.464844 C 7.847656 15.945312 3.503906 8.441406 7.765625 15.804688 C 4.828125 4.875 4.84375 5.195312 4.945312 4.601562 C 4.945312 4.542969 5.019531 4.246094 5.125 4.042969 C 5.96875 2.308594 8.492188 2.578125 8.980469 4.402344 C 9.136719 4.972656 11.542969 13.933594 11.6875 14.480469 C 11.6875 2 11.679688 2.628906 11.707031 2.4375 C 11.847656 1.371094 12.785156 0.644531 13.648438 0.644531 C 14.847656 0.585938 15.820312 1.535156 15.820312 2.699219 L 15.820312 14.835938 C 19.277344 2.820312 18.988281 3.660156 19.246094 3.273438 C 19.78125 2.425781 21 2.066406 21.96875 2.609375 C 22.738281 2.996094 23.222656 3.980469 22.964844 4.945312 L 19.953125 16.144531 L 19.953125 18.578125 C 19.953125 19.394531 20.945312 19.804688 21.523438 19.226562 C 24.300781 16.019531 24.050781 16.296875 24.183594 16.171875 C 25.621094 14.84375 27.578125 14.648438 28.222656 14.972656 C 29.246094 15.410156 29.554688 16.769531 28.699219 17.621094 Z M 28.699219 17.621094 " fill-opacity="1" fill-rule="nonzero"/></g><g clip-path="url(#dd3c2d61d2)"><path fill="#38b6ff" d="M 29.085938 15.867188 L 19.234375 26.0625 C 17.996094 27.148438 16.464844 27.839844 14.835938 28.046875 C 9.710938 28.710938 5.949219 24.925781 5.949219 20.5625 C 5.949219 18.550781 5.417969 16.574219 4.410156 14.832031 C 0.933594 8.9375 1.136719 9.28125 1.097656 9.207031 C 1.550781 8.667969 2.285156 8.421875 2.992188 8.617188 C 3.390625 8.726562 3.621094 8.90625 3.878906 9.164062 C 5.828125 12.421875 7.773438 15.804688 7.765625 15.804688 C 8.257812 15.804688 8.617188 15.339844 8.488281 14.867188 C 5.746094 4.660156 5.878906 5.292969 5.894531 4.855469 C 5.910156 4.210938 6.289062 3.523438 6.90625 3.164062 C 7.164062 3.015625 7.449219 2.933594 7.476562 2.933594 C 8.183594 3.105469 8.78125 3.652344 8.980469 4.402344 C 9.25 5.40625 11.398438 13.394531 11.6875 14.480469 C 11.6875 1.558594 11.675781 2.605469 11.722656 2.335938 C 11.777344 2.027344 11.90625 1.734375 12.058594 1.527344 C 12.234375 1.269531 12.472656 1.082031 12.480469 1.082031 C 13.878906 0.00390625 15.820312 1.023438 15.820312 2.699219 L 15.820312 14.835938 C 19.171875 3.179688 18.992188 3.792969 19.023438 3.710938 C 19.515625 2.320312 21.382812 1.832031 22.492188 3.023438 C 22.5625 3.101562 22.808594 2.046875 19.035156 16.316406 L 19.035156 18.75 C 19.035156 19.449219 19.820312 20.128906 20.726562 19.773438 C 21.332031 19.539062 21.675781 19.050781 22.140625 18.511719 C 24.238281 16.089844 23.988281 16.375 24.132812 16.222656 C 24.746094 15.632812 25.542969 15.175781 26.457031 14.964844 C 26.839844 14.875 27.449219 14.796875 27.820312 14.855469 C 28.324219 14.933594 28.742188 15.238281 28.976562 15.644531 C 29.042969 15.753906 29.082031 15.859375 29.085938 15.867188 Z M 29.085938 15.867188 " fill-opacity="1" fill-rule="nonzero"/></g><path fill="#5ce1e6" d="M 13.527344 26.6875 C 13.273438 26.6875 13.066406 26.480469 13.066406 26.226562 C 13.066406 22.570312 15.804688 19.449219 19.433594 18.964844 C 19.6875 18.933594 19.917969 19.109375 19.949219 19.359375 C 19.984375 19.609375 19.808594 19.839844 19.554688 19.875 C 16.378906 20.296875 13.984375 23.027344 13.984375 26.226562 C 13.984375 26.480469 13.78125 26.6875 13.527344 26.6875 Z M 13.527344 26.6875 " fill-opacity="1" fill-rule="nonzero"/></svg>